<mxfile host="app.diagrams.net" modified="2020-08-12T14:28:20.366Z" agent="5.0 (Macintosh; Intel Mac OS X 10_15_6) AppleWebKit/537.36 (KHTML, like Gecko) Chrome/84.0.4147.105 Safari/537.36" etag="36iH4exZoOgDoU4XtrBR" version="13.6.2" type="github">
  <diagram id="lbrTqT4eIG0ENAsEjwz3" name="Page-1">
    <mxGraphModel dx="786" dy="514" grid="1" gridSize="10" guides="1" tooltips="1" connect="1" arrows="1" fold="1" page="1" pageScale="1" pageWidth="850" pageHeight="1100" math="0" shadow="0">
      <root>
        <mxCell id="0" />
        <mxCell id="1" parent="0" />
        <mxCell id="tkAgVIiStyU7KnoTTb9D-8" value="/Uploads" style="rounded=1;whiteSpace=wrap;html=1;fontSize=12;glass=0;strokeWidth=1;shadow=0;" vertex="1" parent="1">
          <mxGeometry x="160" y="75" width="60" height="40" as="geometry" />
        </mxCell>
        <mxCell id="tkAgVIiStyU7KnoTTb9D-9" style="edgeStyle=orthogonalEdgeStyle;rounded=0;orthogonalLoop=1;jettySize=auto;html=1;exitX=0.5;exitY=1;exitDx=0;exitDy=0;entryX=0;entryY=0.5;entryDx=0;entryDy=0;" edge="1" parent="1" source="tkAgVIiStyU7KnoTTb9D-8" target="tkAgVIiStyU7KnoTTb9D-13">
          <mxGeometry relative="1" as="geometry" />
        </mxCell>
        <mxCell id="tkAgVIiStyU7KnoTTb9D-11" value="&lt;div&gt;&lt;br&gt;&lt;/div&gt;&lt;div&gt;/firstName_lastName&lt;/div&gt;&lt;div&gt;_uniqueNumber.fileType&lt;/div&gt;&lt;div&gt;&lt;br&gt;&lt;/div&gt;" style="rounded=1;whiteSpace=wrap;html=1;fontSize=12;glass=0;strokeWidth=1;shadow=0;" vertex="1" parent="1">
          <mxGeometry x="370" y="70" width="130" height="50" as="geometry" />
        </mxCell>
        <mxCell id="tkAgVIiStyU7KnoTTb9D-19" style="edgeStyle=orthogonalEdgeStyle;rounded=0;orthogonalLoop=1;jettySize=auto;html=1;entryX=0.5;entryY=1;entryDx=0;entryDy=0;" edge="1" parent="1" source="tkAgVIiStyU7KnoTTb9D-13" target="tkAgVIiStyU7KnoTTb9D-14">
          <mxGeometry relative="1" as="geometry">
            <mxPoint x="300" y="130" as="targetPoint" />
            <Array as="points">
              <mxPoint x="295" y="155" />
            </Array>
          </mxGeometry>
        </mxCell>
        <mxCell id="tkAgVIiStyU7KnoTTb9D-13" value="Proxy" style="rhombus;whiteSpace=wrap;html=1;shadow=0;fontFamily=Helvetica;fontSize=12;align=center;strokeWidth=1;spacing=6;spacingTop=-4;" vertex="1" parent="1">
          <mxGeometry x="210" y="130" width="70" height="50" as="geometry" />
        </mxCell>
        <mxCell id="tkAgVIiStyU7KnoTTb9D-18" style="edgeStyle=orthogonalEdgeStyle;rounded=0;orthogonalLoop=1;jettySize=auto;html=1;exitX=1;exitY=0.5;exitDx=0;exitDy=0;entryX=0;entryY=0.5;entryDx=0;entryDy=0;" edge="1" parent="1" source="tkAgVIiStyU7KnoTTb9D-14" target="tkAgVIiStyU7KnoTTb9D-11">
          <mxGeometry relative="1" as="geometry" />
        </mxCell>
        <mxCell id="tkAgVIiStyU7KnoTTb9D-14" value="/Username" style="rounded=1;whiteSpace=wrap;html=1;fontSize=12;glass=0;strokeWidth=1;shadow=0;" vertex="1" parent="1">
          <mxGeometry x="260" y="75" width="70" height="40" as="geometry" />
        </mxCell>
      </root>
    </mxGraphModel>
  </diagram>
</mxfile>
